<svg viewBox="0 0 560 560" version="1.1" id="canada">
   <g transform="matrix(1.25,0,0,-1.25,0,393.025)" id="british-columbia" data-tooltip="<span>British Columbia</span><br><span style='color:#2badd9;'>College of Registered Nurses of British Columbia</span>" data-hasqtip="2" aria-describedby="qtip-2">
      <g transform="scale(0.1,0.1)" id="british-columbia2">
         <path id="path24" d="m 42.3711,1773.25 7.4727,-22.47 7.4765,-14.99 -7.4765,-14.98 -7.4727,-7.5 -7.4727,-14.98 7.4727,-29.98 -7.4727,-7.49 -14.9531,0 0,7.49 L 5,1698.33 l 0,52.45 14.9453,7.49 7.4766,29.97 0,37.46 7.4765,14.99 14.9454,22.47 7.4765,0 7.4727,-14.98 7.4726,-7.49 0,-14.99 22.4258,0 7.4726,-14.98 -7.4726,-7.5 -14.9492,-7.49 -7.4766,-7.49 -14.9453,-14.99 -14.9492,0 z"></path>
         <path id="path28" d="m 229.223,1121.39 0,22.48 14.953,22.48 -14.953,44.95 -7.469,14.99 -14.953,22.48 0,37.47 -14.946,52.45 -14.953,14.98 -7.468,7.49 -29.899,29.97 -7.473,37.46 -14.949,22.48 -14.949,14.99 -29.8984,0 -7.4726,-14.99 7.4726,-22.48 14.9532,-14.98 7.4726,-7.49 -14.9492,-14.99 0,-22.48 7.4766,-7.49 14.9452,-7.49 14.949,0 0,-52.45 14.949,-22.47 0,-15 7.473,-7.49 7.477,-7.49 0,-22.48 7.468,-14.99 14.954,0 7.468,-22.47 7.477,-14.99 0,-52.45 7.476,0 29.899,-14.98 7.469,14.98 z"></path>
         <path id="path32" d="m 774.84,904.109 -97.164,37.469 -127.063,52.442 -119.59,59.94 -97.16,52.45 -52.32,37.46 0,37.46 14.949,7.5 -14.949,7.49 0,14.98 -22.422,0 0,7.5 -29.898,44.95 0,22.49 14.953,14.98 0,37.47 -14.953,0 -7.469,-22.48 -14.953,7.49 0,14.99 -14.946,22.47 -7.476,14.99 -14.945,14.98 -22.422,37.46 -7.477,22.48 -7.473,14.99 0,14.98 7.473,7.49 29.899,0 0,14.99 7.468,29.97 7.477,7.49 37.375,0 0,29.97 -14.953,7.5 -22.422,-7.5 -7.477,22.48 -7.468,14.99 0,22.47 7.468,14.99 7.477,14.98 0,14.99 7.476,7.49 14.946,14.99 14.953,14.98 0,7.5 -14.953,14.98 -14.946,-22.48 -14.953,0 0,37.47 7.477,22.47 0,29.97 -7.477,22.48 0,14.99 14.953,0 14.946,7.49 14.953,14.98 7.469,14.99 29.898,14.98 0,97.41 -14.945,14.98 -14.953,0 -7.469,22.48 7.469,14.99 14.953,14.98 14.945,22.48 0,52.45 22.422,37.46 0,89.91 -14.945,37.46 0,14.99 14.945,14.99 -14.945,22.48 -7.477,14.98 -37.367,0 -29.899,-14.98 -22.421,0 -29.899,-14.99 -7.473,14.99 7.473,14.98 7.477,22.48 7.468,29.97 14.954,22.48 7.468,37.46 134.539,-127.37 149.481,-104.9 149.484,-97.4 119.59,-67.44 82.215,-52.45 82.215,-37.46 -261.594,-502.01 0,-52.44 14.945,-29.97 22.422,-29.97 0,-22.48 -14.945,-14.98 0,-22.48 7.473,-7.5 22.425,-7.49 7.469,-22.47 0,-44.97 7.477,-14.98 22.422,-7.5 7.476,-14.98 7.469,-7.49 0,-67.44 7.476,-22.47 14.954,-7.5 7.468,-7.49 7.477,-14.98 7.472,-22.48 0,-14.99 -7.472,-14.98 -14.945,-7.49 0,-14.99 -7.477,-14.981 7.477,-14.988 7.468,0 0,-44.949 7.477,-14.993 z"></path>
      </g>
   </g>
   <g transform="matrix(1.25,0,0,-1.25,0,393.025)" id="nova-scotia" data-tooltip="<span>Nova Scotia</span><br><span style='color:#2badd9;'>College of Registered Nurses of Nova Scotia</span>" data-hasqtip="0">
      <g transform="scale(0.1,0.1)" id="nova-scotia2">
         <path id="path52" d="m 4085.89,754.25 0,67.441 -29.89,0 0,-29.972 -7.48,-29.969 -14.94,-14.988 0,-22.481 7.47,-22.472 14.95,-14.989 29.89,7.489 7.47,0 14.96,14.992 14.95,14.98 0,44.957 -29.91,-14.988 -7.47,0 z"></path>
         <path id="path56" d="m 3861.67,619.391 0,-14.981 7.48,-7.5 14.94,0 22.42,7.5 7.48,7.488 7.47,-14.988 -7.47,-14.98 -22.42,-7.489 7.47,-14.992 -7.47,-7.488 -22.42,7.488 -22.43,-7.488 -7.48,-14.992 -14.94,-29.969 -22.42,-22.469 -14.95,-14.992 -7.48,-22.48 7.48,-37.469 7.47,-7.488 29.9,0 14.94,-14.981 7.48,0 14.95,7.488 0,14.981 14.95,15 7.47,14.98 14.95,29.969 0,22.481 14.95,22.48 29.89,0 7.48,22.469 7.47,14.992 29.9,7.488 22.42,22.481 29.9,37.461 29.89,22.48 14.95,14.981 0,7.5 -14.95,14.98 -22.42,0 -22.42,-14.98 -37.37,-7.5 -29.9,0 -22.42,-14.981 -14.95,0 -7.47,7.488 -14.95,0 -14.95,-7.488 0,-7.492 -14.94,0 -7.48,-14.988 0,0 z"></path>
      </g>
   </g>
   <g transform="matrix(1.25,0,0,-1.25,0,393.025)" id="standalone">
      <g transform="scale(0.1,0.1)" id="standalone">
         <path id="yukon" d="m 176.902,2477.56 7.477,29.97 0,37.47 -67.266,0 0,22.47 -7.472,0 612.879,569.44 37.375,-44.96 29.89,-7.49 7.477,-14.98 29.894,-37.47 7.477,-14.98 -7.477,-7.49 -7.472,-14.99 -14.95,-14.98 -14.949,-14.99 -22.422,-37.47 -29.898,-14.98 -7.469,-22.48 7.469,-14.98 7.476,-7.49 22.422,-14.99 7.477,0 0,-14.98 -7.477,-7.5 0,-29.97 -7.468,-14.98 -22.43,-7.49 -7.469,0 -7.476,-14.99 0,-14.98 29.898,0 -7.477,-22.48 -7.476,-14.99 -14.945,-14.99 -7.477,0 -14.945,-7.48 -7.477,0 -7.469,-14.99 -7.476,-14.99 0,0 7.476,-7.49 0,0 -7.476,-44.95 7.476,0 7.469,-7.5 14.953,-14.98 0,-14.99 7.469,0 0,-22.47 -14.945,-37.47 0,-14.99 -22.422,0 -7.477,-22.47 0,-14.99 7.477,-14.98 0,-14.99 -14.949,-22.48 -7.473,0 -7.477,-14.98 0,-37.46 22.422,0 0,-22.48 7.477,-52.45 7.476,0 -7.476,-14.99 -7.477,-22.47 0,-29.97 22.422,0 7.477,-7.5 7.476,-14.98 22.422,0 14.945,-14.99 14.954,0 0,-14.98 -7.477,-22.48 0,-14.98 -14.953,-7.5 -7.469,-29.97 -119.59,67.44 -149.484,97.4 -149.481,104.9 -134.539,127.37 z"></path>
         <path data-tooltip="<span>Alberta</span><br><span style='color:#2badd9;'>College and Association of Registered Nurses of Alberta</span>" id="alberta" d="m 894.426,1990.54 -261.594,-502.01 0,-52.44 14.945,-29.97 22.422,-29.97 0,-22.48 -14.945,-14.98 0,-22.48 7.473,-7.5 22.425,-7.49 7.469,-22.47 0,-44.97 7.477,-14.98 22.422,-7.5 7.476,-14.98 7.469,-7.49 0,-67.44 7.476,-22.47 14.954,-7.5 7.468,-7.49 7.477,-14.98 7.472,-22.48 0,-14.99 -7.472,-14.98 -14.945,-7.49 0,-14.99 -7.477,-14.981 7.477,-14.988 7.468,0 0,-44.949 7.477,-14.993 37.371,-14.98 149.484,-44.957 52.315,-14.992 298.97,996.52 -164.44,52.45 -127.06,52.45 -127.054,59.94 z" data-hasqtip="3" aria-describedby="qtip-3"></path>
         <path data-tooltip="<span>Saskatchewan</span><br><span style='color:#2badd9;'>Saskatchewan Registered Nurses' Association</span>" id="saskatchewan" d="m 1312.98,1825.7 -298.97,-996.52 112.11,-29.969 164.44,-44.961 179.38,-37.461 52.32,-7.488 164.42,1011.509 -127.06,29.97 -119.58,37.46 -127.06,37.46 z" data-hasqtip="4" aria-describedby="qtip-4"></path>
         <path data-tooltip="<span>Manitoba</span><br><span style='color:#2badd9;'>College of Registered Nurses of Manitoba </span>" id="manitoba" d="m 1686.68,1720.81 -164.42,-1011.509 127.06,-22.481 186.85,-22.468 59.79,-7.5 7.48,0 -7.48,22.48 7.48,14.977 29.89,307.211 82.22,67.43 276.54,292.21 -22.42,14.99 -29.89,14.98 -29.9,7.49 -14.95,-7.49 -37.37,-14.98 -59.8,-14.99 -29.89,-7.49 -22.43,-7.49 0,7.49 7.48,7.49 14.95,7.49 22.42,0 22.42,22.48 7.48,7.49 -7.48,29.97 -7.47,37.47 0,29.97 -7.48,37.46 -7.47,22.48 -44.85,0 -14.94,14.98 -7.48,7.5 -7.47,-7.5 -7.47,7.5 -7.48,14.98 7.48,22.48 7.47,29.97 7.47,14.98 0,14.99 -89.69,7.49 -119.58,14.99 -127.07,22.48 z" data-hasqtip="5" aria-describedby="qtip-5"></path>
         <path id="ontario" data-tooltip="<span>Ontario</span><br><span style='color:#2badd9;'>College of Nurses of Ontario (CNO exam)</span>" d="m 2837.71,866.648 -14.95,7.493 -14.95,0 -14.94,-7.493 -14.95,7.493 0,14.988 -7.48,29.973 -14.95,22.476 -22.42,0 -7.48,22.473 -7.47,22.48 -14.95,7.489 -22.42,14.99 -7.47,22.47 7.47,29.97 -7.47,14.99 -7.47,22.48 -7.48,29.97 -7.48,29.97 7.48,29.97 7.48,29.97 0,7.49 -22.43,0 -29.9,-7.49 -37.37,7.49 -22.42,0 -22.43,-14.99 -7.47,0 -29.9,7.5 -7.47,14.98 -7.47,22.48 -22.42,7.49 -44.85,7.5 -29.9,29.97 -7.47,0 -7.47,37.47 -7.48,14.98 -22.42,7.49 -44.85,0 -276.54,-292.21 -82.22,-67.43 -29.89,-307.211 14.94,-7.489 7.48,-37.461 7.47,-7.488 44.85,-14.992 44.84,-14.981 37.38,-22.476 29.89,-14.981 14.95,-22.48 37.37,0 29.9,22.48 14.95,7.489 59.79,-29.969 14.94,0 14.95,14.98 7.48,7.5 29.9,7.489 7.47,14.98 7.48,22.481 7.47,14.988 22.42,7.492 29.9,-14.992 44.85,-7.488 22.42,-14.981 14.94,-22.48 7.48,-22.481 14.94,-7.488 29.9,-14.992 7.47,-7.489 7.49,-14.98 14.94,-7.5 0,-67.43 7.48,-29.98 7.47,-7.488 29.89,-7.493 7.48,-7.488 14.95,-7.5 37.37,14.988 29.9,-7.488 22.42,-7.5 37.37,7.5 22.42,-7.5 7.48,-7.492 14.95,-7.488 14.94,7.488 22.42,0 14.95,-7.488 0,-7.5 7.48,-22.469 7.47,-29.973 22.42,-22.48 0,-29.969 -22.42,-7.488 -14.95,7.488 -7.47,14.988 -22.42,14.981 -29.9,22.48 0,-7.488 7.48,-7.5 7.47,-14.981 0,-22.48 -14.95,-29.969 -7.47,-29.972 7.47,-37.457 -7.47,-22.481 -22.43,-7.492 -7.47,-22.481 -14.95,-37.4566 7.47,-14.9805 -7.47,-14.9921 -29.9,0 0,-22.4805 7.48,-7.4883 7.47,0 22.42,7.4883 37.38,22.4805 14.95,22.4804 22.42,22.4727 44.84,0 22.42,7.5 22.43,22.4691 14.95,0 22.42,7.5 14.94,7.488 7.48,7.492 0,14.988 -59.79,0 0,7.493 7.47,22.48 29.9,22.469 29.89,14.988 29.9,7.492 29.9,-7.492 37.37,7.492 22.42,14.989 22.42,7.492 22.42,37.457 29.9,44.961 37.37,29.961 22.42,14.988 37.38,29.973 -7.48,0 -29.9,7.488 -22.42,0 -29.89,-14.981 -14.95,-7.488 -67.27,0 -89.69,37.469 -29.9,0 -44.84,37.461 -29.9,22.48 -7.48,22.469 -37.36,344.672 -14.95,14.976 z" data-hasqtip="6" aria-describedby="qtip-6"></path>
         <path id="prince-edward" d="m 3854.19,679.332 0,7.488 -7.47,22.481 0,22.48 14.95,0 0,-22.48 52.32,0 14.95,7.488 14.94,14.992 14.95,14.981 14.95,0 7.47,-7.492 0,-7.489 -7.47,-22.48 -7.48,-14.992 14.95,-7.489 0,-7.488 -59.79,0 -22.42,-7.492 -22.42,7.492 -22.43,0 z"></path>
         <path data-tooltip="<span>New Brunswick</span><br><span style='color:#2badd9;'>Nurses Association of New Brunswick  </span>" id="new-brunswick" d="m 3532.81,664.352 14.94,-22.481 7.48,0 29.89,7.488 7.48,14.993 7.47,7.488 14.95,0 7.48,-7.488 0,-37.473 22.42,-74.918 7.47,-14.992 29.9,0 7.47,-7.489 0,-22.48 22.42,-7.488 0,-7.492 14.95,0 0,14.98 22.43,7.5 22.42,7.488 22.42,29.973 29.9,14.98 14.94,14.989 7.48,29.968 0,14.981 14.95,-7.488 0,0 7.48,14.988 14.94,7.492 0,0 -7.47,7.488 14.95,14.993 -14.95,0 -29.9,-7.5 -29.9,29.968 0,29.969 -7.47,7.492 -29.9,0 0,14.989 7.48,22.48 -7.48,7.488 -7.47,7.492 -14.95,0 -7.47,-14.98 -14.96,0 -14.94,7.488 -37.37,0 -22.42,-7.488 -7.48,0 -7.47,-7.5 -14.95,-7.488 -22.43,0 -14.94,7.488 -7.48,-7.488 -7.47,-7.492 -7.47,-14.989 0,-29.972 -7.48,-14.977 -14.95,-7.492 -14.94,-7.488 z" data-hasqtip="1"></path>
      </g>
   </g>
   <g transform="matrix(1.25,0,0,-1.25,0,393.025)" id="newfoundland">
      <g transform="scale(0.1,0.1)" id="newfoundland2">
         <path id="path60" d="m 4235.38,1211.3 0,-37.46 22.42,7.49 14.95,-14.98 14.95,-7.49 37.36,22.47 14.95,29.97 14.96,7.5 22.42,0 7.47,-7.5 -7.47,-37.46 0,-22.48 7.47,-14.98 14.95,0 7.47,14.98 14.95,22.48 7.47,22.48 14.95,-7.49 0,-52.45 -14.95,-7.49 0,-29.97 22.42,-7.5 0,37.47 7.48,7.49 7.48,-7.49 0,-37.47 7.47,-22.47 14.95,22.47 14.95,0 7.47,-7.49 -7.47,-29.97 0,-44.95 -14.95,-14.99 -7.47,0 -7.48,14.99 -7.47,-7.49 -14.96,-7.5 -14.94,0 -7.48,22.48 7.48,22.48 0,22.47 -7.48,7.5 -7.47,7.49 0,-14.99 -14.95,-22.47 -7.47,-22.48 -14.95,-14.98 0,-22.481 -7.47,-22.48 -7.48,-14.981 -29.9,0 0,14.981 14.96,22.48 14.94,29.971 0,22.47 -14.94,0 -14.96,-14.98 -7.47,-22.48 -7.48,0 -14.94,7.5 -7.48,0 -7.47,-14.989 -22.42,-7.492 -74.75,-29.969 -22.42,-7.492 -29.89,-29.969 -22.42,-7.5 -14.95,0 -14.96,7.5 14.96,29.969 14.95,37.461 0,7.492 22.42,7.489 -14.95,7.5 -7.47,7.49 -14.95,-14.99 -14.96,0 -7.47,7.5 0,14.98 7.47,0 14.96,22.48 14.95,14.98 7.47,22.48 -7.47,14.98 0,44.96 -14.95,44.95 14.95,37.47 -14.95,29.97 14.95,37.47 0,29.97 37.37,29.97 14.94,7.49 7.48,0 0,-29.97 -22.42,-22.48 0,-29.97 14.94,-22.48 0,-82.42 7.48,-7.49 14.94,7.49 0,22.48 22.42,22.47 14.96,0 z"></path>
         <path id="path64" d="m 4085.89,1301.22 22.43,0 0,7.49 14.95,29.98 22.42,22.47 0,29.97 -22.42,22.48 -14.95,22.48 -14.96,44.95 -7.47,7.49 -14.95,7.5 -37.36,0 -14.95,7.49 -29.9,14.98 -29.9,0 -7.47,-14.98 -14.95,-22.48 -7.47,-37.46 -22.43,-14.99 -7.47,-14.98 -7.47,-22.48 -7.48,-22.48 -22.42,0 0,22.48 7.48,37.46 22.42,22.48 22.42,29.97 14.95,37.46 14.94,7.5 14.95,14.98 0,14.99 -44.84,0 -7.48,14.98 -7.47,0 -7.47,-14.98 -22.42,-22.48 -29.91,22.48 -14.94,-14.99 -29.9,14.99 -22.42,14.98 -14.95,7.5 -37.37,0 -14.95,7.49 -14.95,22.48 -7.47,14.98 0,37.46 -14.95,22.48 -14.95,14.99 -22.42,0 0,0 -7.47,14.98 -7.48,22.48 -44.84,14.99 -29.9,22.47 -22.42,37.47 -14.95,14.98 -37.37,14.99 -14.95,22.47 -14.95,14.99 -22.42,7.49 7.47,-44.95 14.95,-29.97 29.9,-22.48 37.37,-52.45 -7.48,-37.46 44.85,0 14.95,-52.45 22.42,-29.97 -22.42,-37.46 67.27,-74.93 -7.48,-22.48 37.37,-29.97 -29.89,-59.94 -44.85,14.99 -22.42,-14.99 -59.8,14.99 -22.42,22.47 22.42,-74.92 -52.32,37.46 0,-37.46 14.95,-29.97 14.95,-44.95 22.42,-29.98 0,-29.97 14.96,-44.96 44.84,44.96 0,-59.94 52.31,-29.97 37.38,44.95 37.37,-52.45 22.42,37.47 -22.42,52.44 0,37.47 22.42,-14.99 0,-14.98 29.89,-37.47 336.34,157.36 14.95,-37.47 z"></path>
      </g>
   </g>
   <g transform="matrix(1.25,0,0,-1.25,0,393.025)" id="quebec" data-tooltip="<span>Quebec</span><br><span style='color:#2badd9;'>Ordre des infirmières et infirmiers du Québec</span>" data-hasqtip="7" aria-describedby="qtip-7">
      <g transform="scale(0.1,0.1)" id="quebec2">
         <path id="path72" d="m 3532.81,664.352 14.94,7.488 14.95,7.492 7.48,14.977 0,29.972 7.47,14.989 7.47,7.492 7.48,7.488 14.94,-7.488 22.43,0 14.95,7.488 7.47,7.5 7.48,0 22.42,7.488 14.95,0 7.47,22.481 7.47,14.98 14.95,7.492 22.43,0 7.47,7.5 7.48,14.981 29.89,15 7.48,14.976 0,14.993 -14.95,7.488 -7.48,14.98 -7.47,7.5 -22.42,0 -37.38,-7.5 -29.89,-14.98 -37.37,-22.481 -29.9,-22.476 -37.37,-44.961 -29.9,-37.461 -37.36,-44.961 -14.96,-52.437 -14.95,-37.473 -14.94,-37.457 -22.43,-29.973 -29.89,-14.98 -44.85,-22.481 -22.42,-29.968 -22.42,-29.969 -7.47,-37.461 -14.95,-22.488 -37.37,-22.481 -22.43,-7.492 -7.47,-14.988 89.69,29.98 44.84,7.488 44.85,7.493 14.95,7.488 7.47,15 7.47,14.98 29.9,0 22.42,52.45 0,14.98 -14.95,22.48 0,22.481 14.95,29.969 14.96,44.949 22.42,37.473 z"></path>
         <path id="path76" d="m 3757.03,979.039 22.42,14.981 37.37,7.5 37.37,0 37.38,-7.5 22.42,7.5 14.95,0 7.47,-14.989 0,-14.98 -22.42,-7.5 -14.95,0 -14.95,-7.492 -37.37,7.492 -29.9,0 -14.94,14.988 -44.85,0 z"></path>
         <path id="path80" d="m 2800.34,1953.08 59.79,0 22.42,-37.46 37.38,14.98 29.89,37.46 37.37,0 29.89,-67.43 52.33,14.99 7.47,-37.47 29.9,-14.99 14.94,14.99 29.91,-14.99 29.89,14.99 22.42,0 -29.89,-37.46 22.42,-44.96 -7.48,-44.95 14.95,-29.97 37.37,-22.48 7.47,-14.99 29.91,14.99 22.42,-14.99 -7.48,-59.94 29.9,22.48 0,52.45 37.37,0 14.94,52.45 44.85,-52.45 -22.42,74.92 14.95,29.97 -14.95,37.47 7.48,52.44 7.47,-7.49 7.47,-44.95 14.95,-29.97 29.9,-22.48 7.47,-37.46 29.9,-14.99 -7.48,-37.46 44.85,0 14.95,-52.45 22.42,-29.97 -22.42,-37.46 44.84,-52.45 22.43,-22.48 -7.48,-22.48 37.37,-29.97 -29.89,-59.94 -44.85,14.99 -22.42,-14.99 -59.8,14.99 -22.42,22.47 22.42,-74.92 -52.32,37.46 0,-37.46 14.95,-29.97 14.95,-44.95 22.42,-29.98 0,-29.97 14.96,-44.96 44.84,44.96 0,-59.94 52.31,-29.97 37.38,44.95 37.37,-52.45 22.42,37.47 -22.42,52.44 0,37.47 22.42,-14.99 0,-14.98 29.89,-37.47 336.34,157.36 14.95,-37.47 -14.95,-37.47 -52.31,-14.98 0,-59.94 -37.38,-44.96 0,-22.48 -59.79,-44.95 -74.74,-29.97 -149.48,-44.95 -82.22,-22.481 -22.42,-37.461 7.47,-59.937 -52.32,-22.481 -52.32,-89.922 -29.89,-104.886 -14.95,-29.973 -22.42,-52.449 -74.75,-37.461 -37.36,-52.449 -14.95,-37.461 -14.95,-29.969 -22.42,-22.488 -7.48,0 -29.9,7.488 -22.42,0 -29.89,-14.981 -14.95,-7.488 -67.27,0 -89.69,37.469 -29.9,0 -44.84,37.461 -29.9,22.48 -7.48,22.469 -37.36,344.672 0,0 -14.95,14.976 14.95,37.461 37.36,7.5 -22.42,44.95 7.48,37.461 -7.48,37.46 -14.94,22.48 -7.48,22.48 14.95,44.95 -37.37,22.48 -7.47,44.96 37.37,29.97 44.84,44.95 52.32,89.92 37.37,7.49 -29.9,37.46 -22.42,44.96 -44.85,74.92 -59.79,37.47 -14.94,14.98 7.47,44.96 29.9,44.95 0,52.45 -22.43,22.48 -7.47,37.46 -22.42,0 0,29.97 14.95,37.47 -44.85,22.47 0,37.47 29.9,52.45 z"></path>
         <path id="path120" d="m 2710.65,1840.69 14.94,0 7.48,37.46 0,14.98 -7.48,7.5 -14.94,14.99 -7.48,-14.99 -14.94,-14.99 0,-22.48 7.47,0 7.47,-22.47 7.48,0 z"></path>
      </g>
   </g>
   <g transform="matrix(1.25,0,0,-1.25,0,393.025)" id="nt-nu">
      <g transform="scale(0.1,0.1)" id="nt-nu">
         <path id="path84" d="m 2531.26,2957.09 0,-29.98 7.49,-7.49 14.94,-7.49 7.48,-7.49 7.47,-14.99 0,-14.98 22.42,0 59.79,0 7.48,14.98 0,14.99 -7.48,7.49 0,7.49 -14.95,7.49 -14.94,0 0,15 -7.48,14.98 0,7.49 -29.89,0 -22.42,-7.49 -29.91,0 z"></path>
         <path id="path88" d="m 1918.38,2597.44 7.48,22.48 0,14.98 -7.48,0 -14.94,14.99 -14.95,7.49 -7.47,29.98 0,22.47 -7.48,14.99 -29.9,0 -7.47,22.48 0,37.46 7.47,52.45 7.48,37.46 -7.48,37.46 7.48,7.49 0,7.49 -37.37,37.47 -7.48,0 -14.95,-7.49 -7.47,-14.98 0,-119.89 -14.95,-7.49 -7.47,7.49 -14.95,7.49 0,22.48 7.48,37.46 7.47,22.48 -7.47,29.98 -29.9,0 0,0 -22.42,-22.49 -7.48,-7.49 -29.9,0 -7.47,7.49 7.47,7.49 14.95,0 0,15 -7.47,22.47 -59.8,0 0,14.99 14.95,0 7.48,14.98 7.47,7.49 0,14.99 -7.47,14.98 -22.43,0 -14.94,-14.98 -7.48,0 -22.42,-7.49 -7.48,7.49 -37.36,0 -7.48,-7.49 -7.47,-14.99 -14.95,-52.44 -37.37,0 0,-22.49 14.95,-7.49 22.42,-7.49 22.42,-14.99 22.42,-14.98 0,-7.49 -37.37,0 -22.42,7.49 -29.9,0 -14.95,-22.48 0,0 7.48,-14.98 14.95,0 7.47,-7.5 44.85,-14.98 29.89,-14.99 44.85,-37.46 14.95,-14.98 0,-7.5 -7.48,-14.98 -7.47,0 -22.43,14.98 -37.36,7.5 -37.38,14.98 -29.89,14.99 -14.95,0 -14.95,-14.99 0,-37.46 22.42,-14.99 29.9,-22.47 44.85,-29.98 0,0 -7.48,-22.48 0,-37.46 7.48,-14.98 59.79,0 22.42,-14.99 44.85,0 14.94,14.99 52.32,0 7.48,14.98 7.47,7.5 22.43,0 0,-22.48 7.47,0 14.95,-14.99 59.79,-52.45 22.42,0 22.43,14.99 7.47,0 7.47,29.97 -7.47,7.49 -37.37,0 0,14.99 7.47,14.98 14.95,7.5 22.42,0 14.95,-7.5 7.47,0 z"></path>
         <path id="path96" d="m 2015.55,2724.82 -7.47,14.98 -14.95,37.47 -14.95,22.47 -22.42,22.48 -14.95,14.99 -7.48,0 0,37.46 7.48,14.98 7.47,0 7.48,-14.98 14.94,-7.49 7.48,-14.99 14.95,0 7.47,22.48 7.48,29.97 -7.48,22.47 -7.47,0 0,29.98 7.47,7.49 14.95,0 14.95,-7.49 7.47,-14.98 14.95,0 14.95,14.98 7.47,0 7.48,-14.98 0,-22.49 -7.48,-14.98 -14.94,-14.99 -7.48,-14.98 0,0 7.48,-7.49 14.94,-14.99 7.48,0 7.47,-14.98 0,-14.99 -7.47,-22.48 -14.95,-22.47 -14.95,-29.97 -14.95,-7.5 -22.42,-14.98 z"></path>
         <path id="path100" d="m 1978.18,2507.53 -7.48,7.49 0,14.99 7.48,0 14.95,14.99 7.47,14.98 0,7.49 7.48,14.99 7.47,14.98 7.47,0 7.48,-14.98 7.47,0 0,-14.99 7.47,-7.49 14.96,-29.97 7.47,-14.99 14.95,-7.49 0,-29.97 -7.48,-7.49 -7.47,-14.99 -22.43,0 -7.47,14.99 -14.95,7.49 -22.42,14.98 -22.42,14.99 z"></path>
         <path id="path104" d="m 2142.61,2784.76 -7.47,29.97 -7.48,22.48 0,14.98 7.48,22.48 0,14.98 -7.48,29.97 0,22.49 14.95,22.47 14.95,14.99 14.95,0 7.47,-14.99 59.8,0 0,-37.47 -14.95,-14.98 0,-59.94 -7.48,-14.98 -29.89,0 -7.48,14.98 -14.95,0 0,-14.98 7.48,-14.99 0,-37.46 -29.9,0 z"></path>
         <path id="path108" d="m 2777.92,2455.08 -7.48,14.99 -14.95,0 -14.95,-14.99 -14.95,0 0,-52.45 7.48,-22.47 14.95,-14.99 22.42,0 7.48,14.99 0,22.47 7.47,37.47 -7.47,14.98 z"></path>
         <path id="path112" d="m 2464,2222.81 -22.42,0 -14.95,-37.46 -14.95,-74.93 7.48,-14.99 14.95,-14.98 0,-22.48 -7.48,-14.98 -14.95,-14.99 -7.48,-7.49 0,-29.97 67.27,0 7.48,-37.46 7.47,0 14.95,14.98 7.47,22.48 7.48,29.97 7.47,7.49 22.43,0 0,0 7.47,14.99 0,14.98 14.95,0 7.47,-14.98 14.95,-14.99 7.47,-7.49 14.95,-14.99 37.37,0 7.48,14.99 0,37.46 -7.48,7.49 -7.47,0 -22.42,-7.49 -7.48,0 -7.47,7.49 -7.48,14.99 7.48,29.97 -7.48,0 -7.47,7.5 -29.89,0 -29.91,14.98 -22.42,14.99 0,22.47 -29.89,0 -14.95,14.99 -7.47,14.98 7.47,22.48 z"></path>
         <path id="path116" d="m 2613.48,1953.08 -14.95,0 -14.94,-14.99 -7.48,-7.49 -14.94,7.49 -14.95,0 0,0 -14.96,-22.47 -7.47,-22.49 0,-14.98 44.85,0 7.47,7.49 7.48,7.49 14.94,7.5 14.95,14.99 7.48,22.47 -7.48,14.99 z"></path>
         <path id="path124" d="m 834.633,3017.03 -7.477,-7.49 -7.472,-14.99 -14.95,-14.98 -14.949,-14.99 -22.422,-37.47 -29.898,-14.98 -7.469,-22.48 7.469,-14.98 7.476,-7.49 22.422,-14.99 7.477,0 0,-14.98 -7.477,-7.5 0,-29.97 -7.468,-14.98 -22.43,-7.49 -7.469,0 -7.476,-14.99 0,-14.98 29.898,0 -7.477,-22.48 -7.476,-14.99 -14.945,-14.99 -22.422,0 -7.477,-7.48 -7.469,-14.99 -7.476,-14.99 0,0 7.476,-7.49 0,0 -7.476,-44.95 7.476,0 7.469,-7.5 14.953,-14.98 0,-14.99 7.469,0 0,-22.47 -14.945,-37.47 0,-14.99 -22.422,0 -7.477,-22.47 0,-14.99 7.477,-14.98 0,-14.99 -14.949,-22.48 -7.473,0 -7.477,-14.98 0,-37.46 22.422,0 0,-22.48 7.477,-52.45 7.476,0 -7.476,-14.99 -7.477,-22.47 0,-29.97 22.422,0 7.477,-7.5 7.476,-14.98 22.422,0 14.945,-14.99 14.954,0 0,-14.98 -7.477,-22.48 0,-14.98 -14.953,-7.5 -7.469,-29.97 82.215,-52.45 82.215,-37.46 127.054,-59.94 127.06,-52.45 164.44,-52.45 127.06,-37.46 119.58,-37.46 127.06,-29.97 127.07,-22.48 119.58,-14.99 89.69,-7.49 14.95,22.48 0,37.46 7.47,22.48 44.85,52.45 14.95,29.97 14.95,22.47 14.95,52.46 -29.9,0 -7.48,14.98 22.43,22.48 52.32,-22.48 29.89,7.49 0,29.97 -14.94,22.48 -44.85,29.97 -112.11,22.48 -7.48,14.98 0,7.49 7.48,14.99 44.84,-14.99 89.69,-37.46 14.95,-22.48 29.9,14.99 44.84,-29.97 37.37,29.97 67.27,22.48 29.9,52.44 14.94,37.47 -82.21,14.99 -52.32,52.44 0,22.48 82.22,-37.46 29.89,-14.99 22.42,29.97 22.43,22.48 -7.47,14.99 -14.96,22.47 22.43,14.99 59.79,-37.46 14.95,7.49 -14.95,29.97 7.47,22.47 29.9,-37.46 37.38,14.99 14.94,22.47 14.95,29.98 7.47,22.48 -52.31,67.43 14.95,37.46 7.47,74.93 -89.69,52.45 -37.37,-37.46 7.47,-89.92 -37.37,-52.45 -22.42,-52.44 -44.85,37.46 14.95,82.42 -37.37,59.94 -37.37,-89.91 -14.95,67.43 -89.69,59.94 22.42,52.45 -44.84,127.38 -22.42,29.97 -7.48,-14.99 -52.32,-164.84 74.74,-67.43 -59.79,-104.9 -29.89,-97.4 -52.32,127.37 -59.8,-37.46 -67.26,-14.99 -119.59,74.93 -7.47,67.44 -119.59,-14.99 29.89,-52.45 -29.89,-112.39 -67.27,149.85 -142.01,29.98 -7.47,52.44 37.37,0 -7.48,52.45 -67.27,22.48 -44.84,74.93 -44.84,29.97 -29.9,44.95 -52.32,7.49 7.48,44.96 -44.85,-22.48 -22.43,37.46 14.96,52.46 -14.96,22.47 -29.89,-22.47 -29.9,-15 -74.74,15 -52.315,37.46 52.315,-14.99 59.79,-7.49 14.95,7.49 -67.27,37.46 -67.261,0 -44.844,-7.49 -29.898,-29.97 -14.946,37.46 -29.898,14.99 z"></path>
         <path id="path128" d="m 2396.73,2957.09 7.47,-29.98 -7.47,-37.46 -29.89,-37.46 -7.48,-29.97 7.48,-22.48 37.36,-37.46 7.48,-52.45 14.95,-14.99 22.42,0 14.95,44.96 -22.42,22.48 -7.47,22.48 7.47,14.98 0,22.48 -14.95,14.99 -7.47,0 7.47,37.46 37.37,44.95 29.89,37.47 7.48,0 14.95,-14.98 0,-29.98 14.94,-22.48 7.49,-37.46 -7.49,-67.43 7.49,-7.49 37.36,37.46 14.95,7.49 22.42,-37.46 14.95,0 7.47,37.46 -22.42,14.99 0,14.98 29.9,14.99 37.37,-14.99 7.48,-37.46 29.89,22.48 7.47,-22.48 0,-29.97 29.9,-7.49 14.95,-29.97 22.43,14.98 -7.48,37.46 22.42,0 29.9,-37.46 -14.95,-37.46 37.37,-29.98 22.42,14.99 7.47,37.47 44.85,0 7.48,-37.47 -29.9,-37.46 7.48,-14.99 37.36,29.98 0,22.47 14.95,14.99 29.9,0 -22.42,-37.46 -22.43,-29.98 29.9,0 29.89,-7.49 22.43,7.49 7.48,-22.48 -14.95,-14.98 -29.9,0 -29.9,-14.98 29.9,-37.47 37.37,0 37.37,-37.46 29.9,0 29.89,14.99 14.96,0 14.94,-14.99 -7.47,-22.48 14.95,-14.99 29.89,0 14.95,14.99 7.47,-14.99 7.48,-14.98 37.37,14.98 22.42,0 14.95,-14.98 -7.47,-22.48 -22.42,0 0,-14.98 7.47,-22.48 7.47,0 0,-29.97 -22.42,0 0,-22.48 22.42,-14.98 0,-37.47 -22.42,0 -14.95,14.99 -14.95,0 -14.95,7.49 -22.42,52.45 -14.95,14.98 -44.84,-14.98 -44.85,0 22.42,-22.48 0,-14.98 -37.36,0 22.42,-22.48 22.42,-29.98 22.43,0 22.42,-37.46 29.89,14.99 29.9,-14.99 7.47,-37.46 52.32,-14.98 -7.47,-22.48 0,-37.46 29.9,-37.47 7.47,-14.99 -59.79,0 -82.22,52.46 -7.47,-14.99 -29.9,0 -7.48,-22.48 67.27,-29.97 22.42,-22.48 52.33,0 22.42,-14.98 -22.42,-52.45 -97.17,29.97 -44.85,0 -29.89,7.49 -52.32,-7.49 -37.38,37.46 7.49,37.46 -29.91,0 -59.79,22.49 -22.42,52.44 -29.9,0 7.47,-52.44 -37.36,14.98 -22.43,-22.48 -59.79,-14.99 -44.85,37.47 22.43,67.43 74.74,0 59.79,22.48 0,22.48 -22.42,29.97 14.95,37.46 22.42,37.47 52.32,0 29.9,-22.48 29.89,0 22.43,22.48 -14.96,37.46 -59.79,0 0,-22.48 -29.89,0 -29.9,22.48 7.48,37.46 -7.48,14.99 -97.16,104.9 -74.75,22.47 -22.42,29.97 -29.89,37.46 -37.38,22.48 -22.42,0 22.42,-52.44 -7.47,-7.5 -52.32,22.48 -29.89,0 -37.38,-37.46 -89.68,37.46 -44.85,0 -52.32,37.46 -7.47,37.46 14.95,0 29.89,-7.48 7.48,22.47 -37.37,0 -7.48,29.97 -29.9,7.5 -7.47,37.46 7.47,52.45 22.43,37.46 52.32,67.44 29.89,14.98 z"></path>
      </g>
   </g>
</svg>