<?xml version="1.0" standalone="no"?>
<!DOCTYPE svg PUBLIC "-//W3C//DTD SVG 20010904//EN"
 "http://www.w3.org/TR/2001/REC-SVG-20010904/DTD/svg10.dtd">
<svg version="1.0" xmlns="http://www.w3.org/2000/svg"
 width="280.000000pt" height="280.000000pt" viewBox="0 0 280.000000 280.000000"
 preserveAspectRatio="xMidYMid meet">
<metadata>
Created by potrace 1.11, written by Peter Selinger 2001-2013
</metadata>
<g transform="translate(0.000000,280.000000) scale(0.100000,-0.100000)"
fill="#000000" stroke="none">
<path d="M1340 2768 c-48 -25 -69 -56 -117 -176 -14 -34 -29 -64 -33 -67 -5
-3 -37 12 -72 32 -73 44 -121 48 -183 18 -28 -14 -47 -34 -63 -65 -25 -49 -25
-43 -2 -283 7 -70 10 -130 6 -134 -3 -4 -25 12 -49 35 -23 22 -55 46 -70 51
-67 25 -160 1 -201 -52 l-24 -30 -95 28 c-82 24 -99 26 -130 16 -45 -15 -92
-68 -108 -120 -10 -34 -8 -48 13 -112 l25 -74 -32 -30 c-18 -17 -38 -49 -46
-73 -11 -37 -10 -50 4 -96 15 -47 28 -63 119 -142 56 -49 127 -111 158 -139
30 -27 75 -67 99 -87 l43 -37 -31 -43 c-52 -70 -91 -186 -91 -268 0 -202 171
-389 425 -465 50 -15 113 -38 140 -51 28 -13 58 -24 68 -24 14 0 17 -11 19
-77 0 -43 0 -85 0 -93 -7 -65 54 -160 122 -191 67 -30 141 -25 223 16 133 66
215 178 240 327 8 51 20 98 27 104 6 6 40 21 76 34 235 83 472 279 500 415 19
93 -16 156 -97 171 -53 10 -101 -10 -183 -76 -68 -55 -235 -149 -246 -138 -5
6 11 143 33 268 16 92 17 95 65 142 54 52 65 57 75 31 3 -10 24 -39 45 -65 46
-56 112 -78 173 -58 32 11 311 247 448 379 83 80 85 154 6 225 -21 20 -43 36
-48 36 -5 0 0 24 11 53 15 40 19 67 15 117 -5 59 -8 67 -45 101 -54 51 -91 56
-193 27 l-83 -23 -39 42 c-79 86 -153 80 -251 -21 l-59 -61 7 55 c3 30 16 116
27 191 14 83 19 150 15 172 -14 76 -111 146 -182 132 -18 -3 -48 -17 -68 -30
-20 -14 -51 -32 -68 -41 -36 -19 -38 -17 -68 71 -31 92 -54 123 -113 150 -64
31 -81 31 -137 3z m141 -274 c33 -87 65 -163 69 -168 5 -5 64 24 140 69 72 43
133 75 136 72 5 -5 -45 -399 -52 -406 -2 -2 -9 -1 -17 2 -11 4 -10 34 9 173
13 93 21 170 20 172 -2 1 -56 -29 -121 -68 -65 -38 -122 -70 -127 -70 -5 0
-13 12 -19 28 -53 144 -102 262 -107 258 -3 -4 -29 -68 -59 -143 -29 -75 -57
-141 -62 -146 -6 -6 -53 14 -127 57 -64 36 -119 64 -122 62 -2 -3 10 -127 27
-275 24 -203 29 -275 21 -291 -16 -30 -63 -50 -118 -50 l-49 0 -112 115 c-61
63 -113 115 -116 115 -3 0 -18 -27 -35 -59 l-30 -60 -52 15 c-29 9 -82 24
-118 34 -35 11 -65 18 -67 16 -2 -1 15 -49 37 -105 22 -57 38 -106 35 -110 -2
-5 -26 -16 -52 -26 -26 -10 -52 -21 -56 -25 -5 -4 73 -79 172 -166 100 -87
180 -163 178 -168 -2 -6 -7 -11 -13 -13 -11 -3 -399 337 -401 352 -1 6 20 18
45 28 102 38 97 19 42 159 -26 68 -47 124 -45 126 2 2 59 -13 127 -32 68 -20
131 -36 139 -36 8 0 29 29 47 65 17 36 36 65 41 65 5 0 23 -17 41 -37 18 -21
74 -80 124 -132 91 -93 91 -93 133 -88 56 6 73 21 73 66 0 20 -13 146 -30 281
-16 135 -30 259 -30 277 l0 31 128 -74 c70 -40 132 -74 138 -74 6 0 21 26 33
58 65 172 114 292 117 289 2 -2 31 -75 65 -163z m684 -494 c16 -33 35 -60 42
-60 7 0 67 14 133 32 66 17 122 29 125 27 2 -3 -16 -58 -40 -123 -25 -65 -45
-121 -45 -125 0 -3 32 -17 70 -30 39 -14 73 -27 75 -31 2 -4 -86 -86 -197
-184 -140 -123 -204 -174 -211 -167 -14 14 6 34 192 196 82 72 149 134 147
139 -1 5 -27 18 -59 30 -31 11 -58 23 -59 26 -1 3 15 51 36 108 21 57 36 106
33 108 -2 3 -50 -7 -105 -21 -55 -14 -105 -25 -111 -25 -6 0 -23 22 -39 50
-15 27 -30 50 -33 50 -4 0 -56 -52 -116 -115 -101 -105 -113 -115 -146 -115
-28 0 -35 3 -31 15 4 8 15 15 27 15 13 0 65 47 145 130 68 72 127 130 131 130
4 0 20 -27 36 -60z m-372 -21 c40 -49 10 -145 -74 -234 -65 -69 -135 -105
-204 -105 -67 0 -91 23 -88 85 6 166 281 357 366 254z m311 -285 c49 -48 -31
-157 -145 -198 -58 -21 -67 -22 -113 -10 -45 12 -177 29 -276 36 -28 2 19 22
220 95 140 50 265 92 277 92 12 1 29 -6 37 -15z m-749 -236 c-284 -69 -512
-212 -583 -365 -143 -309 287 -529 829 -423 219 42 397 125 528 245 51 46 41
21 -17 -46 -124 -140 -374 -262 -626 -304 -186 -31 -428 -18 -576 32 -131 44
-252 140 -285 227 -26 68 -18 166 20 241 58 115 204 233 385 311 90 39 287 93
335 93 27 -1 26 -2 -10 -11z m470 -10 c4 -3 -19 -30 -51 -59 -90 -86 -98 -109
-141 -414 -30 -218 -40 -268 -54 -275 -18 -10 -249 -33 -256 -26 -3 2 10 105
27 229 29 209 30 227 16 261 -28 68 -104 82 -221 41 -38 -14 -79 -25 -91 -25
-46 0 -58 52 -25 106 32 53 266 138 452 164 67 9 335 8 344 -2z m-255 -920 c0
-66 -33 -216 -55 -255 -67 -113 -224 -169 -254 -90 -6 15 -2 75 12 175 23 167
19 161 102 162 22 1 72 7 110 14 39 8 73 14 78 15 4 0 7 -9 7 -21z"/>
</g>
</svg>
